# File created by Blade
# Date/Time:  Tue Apr 07 20:13:45 2015
#---------------------------------------------------------
:version 1.10
:name HOM
:units
  mass 1.0
  length 1.000000
  angle deg
:documentation
     Acclaim Skeleton File
:root
   axis xyz
   order TX TY TZ RX RY RZ
   position 0.000000 0.000000 0.000000
   orientation 0 0 0
:bonedata
   begin
      id 1
      name Spine_dum
      direction 0.000000 1.000000 0.000000
      length 4.885285
      axis 0.0 0.0 0.0 xyz
   end
   begin
      id 2
      name LeftUpLeg_dum
      direction 1.000000 0.000000 0.000000
      length 2.672193
      axis 0.0 0.0 0.0 xyz
   end
   begin
      id 3
      name RightUpLeg_dum
      direction -1.000000 0.000000 0.000000
      length 2.672193
      axis 0.0 0.0 0.0 xyz
   end
   begin
      id 4
      name Spine
      direction 0.000000 1.000000 0.000000
      length 0.000000
      axis 0.0 0.0 0.0 xyz
      dof rx ry rz
   end
   begin
      id 5
      name Spine_dum1
      direction 0.000000 1.000000 0.000000
      length 16.494159
      axis 0.0 0.0 0.0 xyz
   end
   begin
      id 6
      name Spine_dum2
      direction 0.000000 1.000000 0.000000
      length 10.663448
      axis 0.0 0.0 0.0 xyz
   end
   begin
      id 7
      name Spine_dum3
      direction 0.000000 1.000000 0.000000
      length 10.663448
      axis 0.0 0.0 0.0 xyz
   end
   begin
      id 8
      name Head
      direction 0.000000 1.000000 0.000000
      length 4.527550
      axis 0.0 0.0 0.0 xyz
      dof rx ry rz
   end
   begin
      id 9
      name LeftShoulder
      direction 1.000000 0.000000 0.000000
      length 7.531907
      axis 0.0 0.0 -90.0 xyz
      dof rx ry rz
   end
   begin
      id 10
      name LeftArm
      direction 1.000000 0.000000 0.000000
      length 10.229199
      axis 0.0 0.0 -90.0 xyz
      dof rx ry rz
   end
   begin
      id 11
      name LeftForeArm
      direction 1.000000 0.000000 0.000000
      length 8.673495
      axis 0.0 0.0 -90.0 xyz
      dof ry rz rx
   end
   begin
      id 12
      name LeftHand
      direction 0.000000 0.000000 0.000000
      length 0.000000
      axis 0.0 0.0 -90.0 xyz
      dof rx ry rz
   end
   begin
      id 13
      name LeftHand_dum1
      direction 0.000000 0.000000 0.000000
      length 0.000000
      axis 0.0 0.0 -90.0 xyz
   end
   begin
      id 14
      name LeftHand_dum2
      direction 1.000000 0.000000 0.000000
      length 3.937000
      axis 0.0 0.0 -90.0 xyz
   end
   begin
      id 15
      name LeftHandThumb1
      direction 0.000000 0.000000 1.000000
      length 3.937000
      axis 0.0 0.0 -90.0 xyz
      dof rx rz ry
   end
   begin
      id 16
      name RightShoulder
      direction -1.000000 0.000000 0.000000
      length 7.531907
      axis 0.0 0.0 90.0 xyz
      dof rx ry rz
   end
   begin
      id 17
      name RightArm
      direction -1.000000 0.000000 0.000000
      length 10.229199
      axis 0.0 0.0 90.0 xyz
      dof rx ry rz
   end
   begin
      id 18
      name RightForeArm
      direction -1.000000 0.000000 0.000000
      length 8.673495
      axis 0.0 0.0 90.0 xyz
      dof ry rz rx
   end
   begin
      id 19
      name RightHand
      direction 0.000000 0.000000 0.000000
      length 0.000000
      axis 0.0 0.0 90.0 xyz
      dof rx ry rz
   end
   begin
      id 20
      name RightHand_dum1
      direction 0.000000 0.000000 0.000000
      length 0.000000
      axis 0.0 0.0 90.0 xyz
   end
   begin
      id 21
      name RightHand_dum2
      direction -1.000000 0.000000 0.000000
      length 3.937000
      axis 0.0 0.0 90.0 xyz
   end
   begin
      id 22
      name RightHandThumb1
      direction 0.000000 0.000000 1.000000
      length 3.937000
      axis 0.0 0.0 90.0 xyz
      dof rx rz ry
   end
   begin
      id 23
      name LeftUpLeg
      direction 0.000000 -1.000000 0.000000
      length 16.263388
      axis 0.0 0.0 0.0 xyz
      dof rx ry rz
   end
   begin
      id 24
      name LeftLeg
      direction 0.000000 -1.000000 0.000000
      length 14.328163
      axis 0.0 0.0 0.0 xyz
      dof rx ry rz
   end
   begin
      id 25
      name LeftFoot
      direction 0.000000 -0.258819 0.965926
      length 5.031290
      axis 15.0 0.0 0.0 xyz
      dof rx ry rz
   end
   begin
      id 26
      name LeftToeBase
      direction 0.000000 0.000000 1.000000
      length 2.952750
      axis 0.0 0.0 0.0 xyz
      dof rx ry rz
   end
   begin
      id 27
      name RightUpLeg
      direction 0.000000 -1.000000 0.000000
      length 16.263388
      axis 0.0 0.0 0.0 xyz
      dof rx ry rz
   end
   begin
      id 28
      name RightLeg
      direction 0.000000 -1.000000 0.000000
      length 14.328163
      axis 0.0 0.0 0.0 xyz
      dof rx ry rz
   end
   begin
      id 29
      name RightFoot
      direction 0.000000 -0.258819 0.965926
      length 5.031290
      axis 15.0 0.0 0.0 xyz
      dof rx ry rz
   end
   begin
      id 30
      name RightToeBase
      direction 0.000000 0.000000 1.000000
      length 2.952750
      axis 0.0 0.0 0.0 xyz
      dof rx ry rz
   end
:hierarchy
   begin
      root Spine_dum LeftUpLeg_dum RightUpLeg_dum
      Spine_dum Spine
      LeftUpLeg_dum LeftUpLeg
      RightUpLeg_dum RightUpLeg
      Spine Spine_dum1 Spine_dum2 Spine_dum3
      Spine_dum1 Head
      Spine_dum2 LeftShoulder
      Spine_dum3 RightShoulder
      LeftShoulder LeftArm
      LeftArm LeftForeArm
      LeftForeArm LeftHand
      LeftHand LeftHand_dum1 LeftHand_dum2
      LeftHand_dum1 LeftHandThumb1
      RightShoulder RightArm
      RightArm RightForeArm
      RightForeArm RightHand
      RightHand RightHand_dum1 RightHand_dum2
      RightHand_dum1 RightHandThumb1
      LeftUpLeg LeftLeg
      LeftLeg LeftFoot
      LeftFoot LeftToeBase
      RightUpLeg RightLeg
      RightLeg RightFoot
      RightFoot RightToeBase
   end

# File created by Blade
# Date/Time:  Tue Apr 07 20:13:55 2015
# Frame Rate: 120.000 fps
#------------------------------------------------------
:FULLY-SPECIFIED
:DEGREES
1033
root 1.632056 33.459316 -7.489871 -28.774985 20.485915 -26.748220
Spine 20.895752 -5.790240 16.507056
Head -1.371347 7.888584 5.665553
LeftShoulder -7.094050 39.614194 22.950396
LeftArm 79.393921 26.338433 -35.342429
LeftForeArm -67.251643 0.000000 95.282018
LeftHand 6.501791 -0.000000 25.185391
LeftHandThumb1 -26.253704 0.000000 33.147579
RightShoulder -1.764677 -3.504316 -13.576203
RightArm 17.847956 -21.070183 77.242258
RightForeArm 29.726595 -0.000000 64.205302
RightHand 1.520966 -0.000000 20.858097
RightHandThumb1 -24.326973 -0.000000 -32.862282
LeftUpLeg 6.464896 7.764083 24.758366
LeftLeg 28.236691 -0.000000 -0.000000
LeftFoot -18.232963 7.985304 -26.399556
LeftToeBase -6.133273 -0.000000 0.000000
RightUpLeg -115.910437 -5.086894 2.577624
RightLeg 148.778324 -0.000000 -0.000000
RightFoot 46.892255 6.749828 0.450961
RightToeBase 35.847634 -0.000000 -0.000000
1034
root 1.619183 33.459233 -7.475307 -28.893056 20.475659 -26.834591
Spine 20.934807 -5.877263 16.435310
Head -1.195632 7.959268 5.726882
LeftShoulder -7.054928 39.668919 23.058212
LeftArm 79.351139 26.402049 -35.405070
LeftForeArm -67.514161 0.000000 95.320944
LeftHand 6.568000 -0.000000 25.269276
LeftHandThumb1 -26.253704 0.000000 33.147579
RightShoulder -1.861684 -3.499934 -13.632368
RightArm 17.914572 -21.045096 77.342537
RightForeArm 29.329172 0.000000 64.195134
RightHand 1.447854 -0.000000 20.639729
RightHandThumb1 -24.326973 -0.000000 -32.862282
LeftUpLeg 6.616459 7.385149 24.940961
LeftLeg 28.186047 -0.000000 -0.000000
LeftFoot -18.132392 7.317932 -26.570750
LeftToeBase -6.202437 -0.000000 0.000000
RightUpLeg -115.827068 -5.230887 2.237693
RightLeg 148.750165 -0.000000 -0.000000
RightFoot 46.921251 7.030736 0.266824
RightToeBase 35.951732 -0.000000 -0.000000
1035
root 1.606485 33.456482 -7.459967 -28.999838 20.472839 -26.931023
Spine 20.934139 -5.946449 16.360634
Head -0.961368 7.991676 5.874768
LeftShoulder -7.040979 39.714266 23.175232
LeftArm 79.322501 26.454759 -35.499369
LeftForeArm -67.512104 -0.000000 95.249778
LeftHand 6.525401 -0.000000 24.986587
LeftHandThumb1 -26.253704 0.000000 33.147579
RightShoulder -1.884966 -3.441607 -13.708311
RightArm 17.858465 -20.999876 77.449125
RightForeArm 28.974772 -0.000000 64.171022
RightHand 1.544962 0.000000 20.681340
RightHandThumb1 -24.326973 -0.000000 -32.862282
LeftUpLeg 6.813322 7.126559 25.130249
LeftLeg 28.031046 -0.000000 -0.000000
LeftFoot -18.130237 6.702746 -26.607868
LeftToeBase -6.140834 -0.000000 0.000000
RightUpLeg -115.741648 -5.439440 1.847049
RightLeg 148.732467 -0.000000 -0.000000
RightFoot 46.972313 7.344872 0.285720
RightToeBase 35.994282 -0.000000 -0.000000
1036
root 1.594873 33.452570 -7.445225 -29.096703 20.472642 -27.029245
Spine 20.896873 -6.006953 16.307273
Head -0.653793 7.982070 6.015108
LeftShoulder -7.065692 39.786209 23.201967
LeftArm 79.302739 26.415250 -35.576163
LeftForeArm -67.316180 -0.000000 95.108545
LeftHand 6.216901 -0.000000 24.397072
LeftHandThumb1 -26.253704 0.000000 33.147579
RightShoulder -1.890985 -3.485553 -13.795647
RightArm 17.870257 -20.939822 77.500326
RightForeArm 28.759630 -0.000000 64.187485
RightHand 1.548159 0.000000 20.514536
RightHandThumb1 -24.326973 -0.000000 -32.862282
LeftUpLeg 7.077671 6.939057 25.286763
LeftLeg 27.717087 -0.000000 -0.000000
LeftFoot -18.240281 6.289756 -26.553499
LeftToeBase -5.986727 -0.000000 0.000000
RightUpLeg -115.660703 -5.635487 1.510238
RightLeg 148.723616 -0.000000 -0.000000
RightFoot 47.015585 7.579617 0.244365
RightToeBase 35.974484 -0.000000 -0.000000
1037
root 1.583978 33.444306 -7.434488 -29.127660 20.507730 -27.105530
Spine 20.785310 -6.053943 16.241955
Head -0.321093 7.965978 6.134230
LeftShoulder -7.158810 39.829558 23.115237
LeftArm 79.342608 26.376356 -35.537658
LeftForeArm -67.328151 0.000000 95.014479
LeftHand 6.163362 -0.000000 24.090318
LeftHandThumb1 -26.253704 0.000000 33.147579
RightShoulder -1.898088 -3.550044 -13.880240
RightArm 17.882523 -20.917349 77.507258
RightForeArm 28.558642 -0.000000 64.201745
RightHand 1.582451 -0.000000 20.505775
RightHandThumb1 -24.326973 -0.000000 -32.862282
LeftUpLeg 7.301681 6.885512 25.370957
LeftLeg 27.339566 -0.000000 -0.000000
LeftFoot -18.356592 6.144842 -26.171088
LeftToeBase -6.036442 -0.000000 0.000000
RightUpLeg -115.656369 -5.820180 1.233830
RightLeg 148.728611 -0.000000 -0.000000
RightFoot 47.030586 7.778054 0.113709
RightToeBase 36.056018 -0.000000 -0.000000
1038
root 1.571250 33.433143 -7.425387 -29.143489 20.564309 -27.205055
Spine 20.646400 -6.100112 16.195081
Head -0.009427 7.918524 6.263752
LeftShoulder -7.265174 39.798237 23.001037
LeftArm 79.378680 26.370274 -35.464333
LeftForeArm -67.315885 0.000000 94.961928
LeftHand 5.965694 -0.000000 24.180003
LeftHandThumb1 -26.253704 0.000000 33.147579
RightShoulder -1.928551 -3.610984 -13.954556
RightArm 17.892121 -20.878309 77.524540
RightForeArm 28.213151 -0.000000 64.149353
RightHand 1.683130 -0.000000 20.589008
RightHandThumb1 -24.326973 -0.000000 -32.862282
LeftUpLeg 7.504242 6.917727 25.433529
LeftLeg 26.890323 -0.000000 -0.000000
LeftFoot -18.445721 6.319311 -25.427835
LeftToeBase -6.504463 -0.000000 0.000000
RightUpLeg -115.668677 -6.020696 1.005246
RightLeg 148.749814 -0.000000 -0.000000
RightFoot 47.061434 8.097939 -0.138782
RightToeBase 36.000688 -0.000000 -0.000000
